<svg width="56" height="56" viewBox="0 0 56 56" fill="none" xmlns="http://www.w3.org/2000/svg">
<circle cx="28" cy="28" r="28" transform="rotate(180 28 28)" fill="#05D0E3"/>
<path d="M28.1762 19.0045C27.6697 19.0037 27.1789 19.1547 26.7889 19.4313L13.7831 28.7086C13.3404 29.0236 13.062 29.4761 13.0092 29.9668C12.9563 30.4574 13.1333 30.9459 13.5013 31.3248C13.8692 31.7037 14.3979 31.942 14.9711 31.9873C15.5443 32.0325 16.115 31.881 16.5576 31.566L28.1762 23.2535L39.7947 31.2692C40.0164 31.4233 40.2715 31.5384 40.5454 31.6078C40.8192 31.6773 41.1064 31.6997 41.3905 31.6739C41.6745 31.648 41.9497 31.5743 42.2004 31.4571C42.451 31.3399 42.6722 31.1814 42.851 30.9908C43.0496 30.8001 43.1999 30.5762 43.2927 30.3334C43.3854 30.0906 43.4186 29.834 43.3901 29.5796C43.3616 29.3253 43.2721 29.0788 43.1271 28.8555C42.9821 28.6322 42.7848 28.4369 42.5476 28.2819L29.5418 19.3199C29.1406 19.0871 28.6598 18.976 28.1762 19.0045Z" fill="white" fill-opacity="0.79"/>
</svg>
