<svg width="562" height="65" viewBox="0 0 562 65" fill="none" xmlns="http://www.w3.org/2000/svg">
<path d="M0.48 52V7.2H21.664C26.6133 7.2 30.9653 8.11733 34.72 9.952C38.4747 11.7867 41.3973 14.368 43.488 17.696C45.6213 21.024 46.688 24.992 46.688 29.6C46.688 34.1653 45.6213 38.1333 43.488 41.504C41.3973 44.832 38.4747 47.4133 34.72 49.248C30.9653 51.0827 26.6133 52 21.664 52H0.48ZM13.152 41.888H21.152C23.712 41.888 25.9307 41.4187 27.808 40.48C29.728 39.4987 31.2213 38.0907 32.288 36.256C33.3547 34.3787 33.888 32.16 33.888 29.6C33.888 26.9973 33.3547 24.7787 32.288 22.944C31.2213 21.1093 29.728 19.7227 27.808 18.784C25.9307 17.8027 23.712 17.312 21.152 17.312H13.152V41.888ZM52.779 52V17.312H64.939V52H52.779ZM58.859 13.472C56.6403 13.472 54.8483 12.8533 53.483 11.616C52.1177 10.3787 51.435 8.84267 51.435 7.008C51.435 5.17333 52.1177 3.63733 53.483 2.4C54.8483 1.16267 56.6403 0.543999 58.859 0.543999C61.0777 0.543999 62.8697 1.14133 64.235 2.336C65.6003 3.488 66.283 4.98133 66.283 6.816C66.283 8.736 65.6003 10.336 64.235 11.616C62.9123 12.8533 61.1203 13.472 58.859 13.472ZM89.8015 64.992C86.4735 64.992 83.2948 64.608 80.2655 63.84C77.2788 63.072 74.7188 61.9413 72.5855 60.448L77.0015 51.936C78.4522 53.088 80.2442 53.984 82.3775 54.624C84.5535 55.3067 86.6655 55.648 88.7135 55.648C91.9988 55.648 94.3668 54.9227 95.8175 53.472C97.2682 52.064 97.9935 49.9947 97.9935 47.264V43.168L98.6335 33.44L98.5695 23.648V17.312H110.154V45.664C110.154 52.2347 108.383 57.0987 104.842 60.256C101.3 63.4133 96.2868 64.992 89.8015 64.992ZM87.6895 50.208C84.6175 50.208 81.7802 49.5253 79.1775 48.16C76.6175 46.752 74.5482 44.8107 72.9695 42.336C71.4335 39.8187 70.6655 36.8533 70.6655 33.44C70.6655 30.0267 71.4335 27.0827 72.9695 24.608C74.5482 22.0907 76.6175 20.1493 79.1775 18.784C81.7802 17.4187 84.6175 16.736 87.6895 16.736C90.6335 16.736 93.1508 17.3333 95.2415 18.528C97.3322 19.68 98.9108 21.4933 99.9775 23.968C101.087 26.4427 101.642 29.6 101.642 33.44C101.642 37.28 101.087 40.4373 99.9775 42.912C98.9108 45.3867 97.3322 47.2213 95.2415 48.416C93.1508 49.6107 90.6335 50.208 87.6895 50.208ZM90.5695 40.544C92.0202 40.544 93.3002 40.2453 94.4095 39.648C95.5615 39.0507 96.4575 38.2187 97.0975 37.152C97.7802 36.0853 98.1215 34.848 98.1215 33.44C98.1215 32.032 97.7802 30.7947 97.0975 29.728C96.4575 28.6613 95.5615 27.8507 94.4095 27.296C93.3002 26.6987 92.0202 26.4 90.5695 26.4C89.1188 26.4 87.8175 26.6987 86.6655 27.296C85.5135 27.8507 84.5962 28.6613 83.9135 29.728C83.2735 30.7947 82.9535 32.032 82.9535 33.44C82.9535 34.848 83.2735 36.0853 83.9135 37.152C84.5962 38.2187 85.5135 39.0507 86.6655 39.648C87.8175 40.2453 89.1188 40.544 90.5695 40.544ZM117.967 52V17.312H130.127V52H117.967ZM124.047 13.472C121.828 13.472 120.036 12.8533 118.671 11.616C117.305 10.3787 116.623 8.84267 116.623 7.008C116.623 5.17333 117.305 3.63733 118.671 2.4C120.036 1.16267 121.828 0.543999 124.047 0.543999C126.265 0.543999 128.057 1.14133 129.423 2.336C130.788 3.488 131.471 4.98133 131.471 6.816C131.471 8.736 130.788 10.336 129.423 11.616C128.1 12.8533 126.308 13.472 124.047 13.472ZM153.517 52.576C149.08 52.576 145.624 51.488 143.149 49.312C140.674 47.0933 139.437 43.7653 139.437 39.328V9.568H151.597V39.2C151.597 40.4373 151.938 41.4187 152.621 42.144C153.304 42.8267 154.178 43.168 155.245 43.168C156.696 43.168 157.933 42.8053 158.957 42.08L161.965 50.592C160.941 51.2747 159.682 51.7653 158.189 52.064C156.696 52.4053 155.138 52.576 153.517 52.576ZM134.381 27.68V18.592H159.533V27.68H134.381ZM187.838 52V45.536L187.006 43.936V32.032C187.006 30.112 186.409 28.64 185.214 27.616C184.062 26.5493 182.206 26.016 179.646 26.016C177.982 26.016 176.297 26.2933 174.59 26.848C172.883 27.36 171.433 28.0853 170.238 29.024L166.142 20.768C168.105 19.488 170.451 18.5067 173.182 17.824C175.955 17.0987 178.707 16.736 181.438 16.736C187.07 16.736 191.422 18.0373 194.494 20.64C197.609 23.2 199.166 27.232 199.166 32.736V52H187.838ZM177.598 52.576C174.825 52.576 172.478 52.1067 170.558 51.168C168.638 50.2293 167.166 48.9493 166.142 47.328C165.161 45.7067 164.67 43.8933 164.67 41.888C164.67 39.7547 165.203 37.92 166.27 36.384C167.379 34.8053 169.065 33.6107 171.326 32.8C173.587 31.9467 176.51 31.52 180.094 31.52H188.286V37.856H181.758C179.795 37.856 178.409 38.176 177.598 38.816C176.83 39.456 176.446 40.3093 176.446 41.376C176.446 42.4427 176.851 43.296 177.662 43.936C178.473 44.576 179.582 44.896 180.99 44.896C182.313 44.896 183.507 44.576 184.574 43.936C185.683 43.2533 186.494 42.2293 187.006 40.864L188.67 45.344C188.03 47.7333 186.771 49.5467 184.894 50.784C183.059 51.9787 180.627 52.576 177.598 52.576ZM206.842 52V4.512H219.002V52H206.842ZM226.072 38.432V29.088H244.76V38.432H226.072ZM272.453 52V45.536L271.621 43.936V32.032C271.621 30.112 271.023 28.64 269.829 27.616C268.677 26.5493 266.821 26.016 264.26 26.016C262.597 26.016 260.911 26.2933 259.205 26.848C257.498 27.36 256.047 28.0853 254.853 29.024L250.757 20.768C252.719 19.488 255.066 18.5067 257.797 17.824C260.57 17.0987 263.322 16.736 266.053 16.736C271.685 16.736 276.037 18.0373 279.109 20.64C282.223 23.2 283.781 27.232 283.781 32.736V52H272.453ZM262.213 52.576C259.439 52.576 257.093 52.1067 255.173 51.168C253.253 50.2293 251.781 48.9493 250.757 47.328C249.775 45.7067 249.285 43.8933 249.285 41.888C249.285 39.7547 249.818 37.92 250.885 36.384C251.994 34.8053 253.679 33.6107 255.941 32.8C258.202 31.9467 261.125 31.52 264.708 31.52H272.901V37.856H266.373C264.41 37.856 263.023 38.176 262.213 38.816C261.445 39.456 261.061 40.3093 261.061 41.376C261.061 42.4427 261.466 43.296 262.277 43.936C263.087 44.576 264.197 44.896 265.605 44.896C266.927 44.896 268.122 44.576 269.189 43.936C270.298 43.2533 271.109 42.2293 271.621 40.864L273.285 45.344C272.645 47.7333 271.386 49.5467 269.509 50.784C267.674 51.9787 265.242 52.576 262.213 52.576ZM291.096 52V17.312H320.152V26.976H300.568L303.192 24.352V52H291.096ZM341.39 52.576C337.294 52.576 333.71 51.808 330.638 50.272C327.608 48.6933 325.24 46.56 323.534 43.872C321.87 41.1413 321.038 38.048 321.038 34.592C321.038 31.136 321.848 28.064 323.47 25.376C325.134 22.6453 327.416 20.5333 330.318 19.04C333.219 17.504 336.483 16.736 340.11 16.736C343.523 16.736 346.638 17.44 349.454 18.848C352.27 20.2133 354.51 22.24 356.174 24.928C357.838 27.616 358.67 30.88 358.67 34.72C358.67 35.1467 358.648 35.6373 358.606 36.192C358.563 36.7467 358.52 37.2587 358.478 37.728H331.022V31.328H352.014L347.406 33.12C347.448 31.5413 347.15 30.176 346.51 29.024C345.912 27.872 345.059 26.976 343.95 26.336C342.883 25.696 341.624 25.376 340.174 25.376C338.723 25.376 337.443 25.696 336.333 26.336C335.267 26.976 334.435 27.8933 333.838 29.088C333.24 30.24 332.942 31.6053 332.942 33.184V35.04C332.942 36.7467 333.283 38.2187 333.966 39.456C334.691 40.6933 335.715 41.6533 337.038 42.336C338.36 42.976 339.939 43.296 341.774 43.296C343.48 43.296 344.931 43.0613 346.126 42.592C347.363 42.08 348.579 41.312 349.774 40.288L356.174 46.944C354.51 48.7787 352.462 50.1867 350.03 51.168C347.598 52.1067 344.718 52.576 341.39 52.576ZM365.096 52V17.312H377.192V30.176H389.672V17.312H401.832V52H389.672V39.84H377.192V52H365.096ZM427.442 52.576C423.602 52.576 420.167 51.808 417.138 50.272C414.151 48.736 411.804 46.624 410.098 43.936C408.391 41.2053 407.538 38.0907 407.538 34.592C407.538 31.0933 408.391 28 410.098 25.312C411.804 22.624 414.151 20.5333 417.138 19.04C420.167 17.504 423.602 16.736 427.442 16.736C431.367 16.736 434.759 17.568 437.618 19.232C440.476 20.896 442.503 23.2427 443.698 26.272L434.29 31.072C433.479 29.4507 432.476 28.2773 431.282 27.552C430.087 26.784 428.786 26.4 427.378 26.4C425.97 26.4 424.69 26.72 423.538 27.36C422.386 28 421.468 28.9387 420.786 30.176C420.146 31.3707 419.826 32.8427 419.826 34.592C419.826 36.384 420.146 37.8987 420.786 39.136C421.468 40.3733 422.386 41.312 423.538 41.952C424.69 42.592 425.97 42.912 427.378 42.912C428.786 42.912 430.087 42.5493 431.282 41.824C432.476 41.056 433.479 39.8613 434.29 38.24L443.698 43.04C442.503 46.0693 440.476 48.416 437.618 50.08C434.759 51.744 431.367 52.576 427.442 52.576ZM456.653 52V24.288L459.277 26.976H445.453V17.312H479.885V26.976H466.061L468.749 24.288V52H456.653ZM484.596 52V17.312H503.22C507.7 17.312 511.199 18.1013 513.716 19.68C516.233 21.216 517.492 23.4347 517.492 26.336C517.492 29.1093 516.319 31.328 513.972 32.992C511.668 34.6133 508.553 35.424 504.628 35.424L505.716 32.864C509.94 32.864 513.119 33.6533 515.252 35.232C517.428 36.768 518.516 39.0293 518.516 42.016C518.516 45.088 517.321 47.52 514.932 49.312C512.585 51.104 508.98 52 504.116 52H484.596ZM495.476 44.128H503.028C504.521 44.128 505.631 43.872 506.356 43.36C507.081 42.8053 507.444 41.9947 507.444 40.928C507.444 39.8187 507.081 39.008 506.356 38.496C505.673 37.984 504.607 37.728 503.156 37.728H495.476V44.128ZM495.476 31.264H502.132C503.583 31.264 504.649 31.008 505.332 30.496C506.015 29.9413 506.356 29.152 506.356 28.128C506.356 27.104 506.015 26.3573 505.332 25.888C504.649 25.376 503.583 25.12 502.132 25.12H495.476V31.264ZM541.747 52.576C537.949 52.576 534.579 51.808 531.635 50.272C528.691 48.736 526.365 46.624 524.659 43.936C522.995 41.2053 522.163 38.0907 522.163 34.592C522.163 31.0933 522.995 28 524.659 25.312C526.365 22.624 528.691 20.5333 531.635 19.04C534.579 17.504 537.949 16.736 541.747 16.736C545.544 16.736 548.915 17.504 551.859 19.04C554.845 20.5333 557.171 22.624 558.835 25.312C560.499 28 561.331 31.0933 561.331 34.592C561.331 38.0907 560.499 41.2053 558.835 43.936C557.171 46.624 554.845 48.736 551.859 50.272C548.915 51.808 545.544 52.576 541.747 52.576ZM541.747 42.912C543.155 42.912 544.392 42.592 545.459 41.952C546.568 41.312 547.443 40.3733 548.083 39.136C548.723 37.856 549.043 36.3413 549.043 34.592C549.043 32.8427 548.723 31.3707 548.083 30.176C547.443 28.9387 546.568 28 545.459 27.36C544.392 26.72 543.155 26.4 541.747 26.4C540.381 26.4 539.144 26.72 538.035 27.36C536.968 28 536.093 28.9387 535.411 30.176C534.771 31.3707 534.451 32.8427 534.451 34.592C534.451 36.3413 534.771 37.856 535.411 39.136C536.093 40.3733 536.968 41.312 538.035 41.952C539.144 42.592 540.381 42.912 541.747 42.912Z" fill="url(#paint0_linear_1_59119)"/>
<defs>
<linearGradient id="paint0_linear_1_59119" x1="12" y1="29" x2="563" y2="29" gradientUnits="userSpaceOnUse">
<stop stop-color="#DE00BB"/>
<stop offset="0.433333" stop-color="#8A6CF8"/>
<stop offset="0.954166" stop-color="#00D8E6"/>
</linearGradient>
</defs>
</svg>
