<svg width="30" height="30" viewBox="0 0 30 30" fill="none" xmlns="http://www.w3.org/2000/svg">
<g clip-path="url(#clip0_2_59257)">
<path opacity="0.989" fill-rule="evenodd" clip-rule="evenodd" d="M15.0293 5.36133C18.627 5.20173 21.3516 6.64705 23.2031 9.69727C24.4312 12.0855 24.5484 14.5269 23.5547 17.0215C23.1919 17.4422 22.7329 17.6863 22.1777 17.7539C20.8315 17.8686 19.5034 17.7514 18.1933 17.4023C15.1158 16.6541 12.2837 15.3846 9.69724 13.5938C9.23312 13.2396 8.81318 12.8392 8.43748 12.3926C8.06857 11.95 7.91236 11.4422 7.96873 10.8691C9.2524 7.6636 11.6059 5.82768 15.0293 5.36133Z" fill="#06D4E7"/>
<path opacity="0.982" fill-rule="evenodd" clip-rule="evenodd" d="M29.9707 19.9512C29.9707 20.3613 29.9707 20.7715 29.9707 21.1816C29.6888 22.2747 29.0443 23.0853 28.0371 23.6133C26.4437 24.3168 24.7738 24.639 23.0273 24.5801C19.3935 24.4627 15.8876 23.7302 12.5098 22.3828C9.83408 21.3383 7.33412 19.9907 5.00977 18.3399C3.31525 17.1532 1.89924 15.6981 0.761719 13.9746C0.40977 13.3373 0.146098 12.6733 -0.0292969 11.9824C-0.0292969 11.5528 -0.0292969 11.123 -0.0292969 10.6934C0.256151 9.67495 0.861621 8.9035 1.78711 8.37891C2.98508 7.78155 4.25461 7.4495 5.5957 7.38282C6.63404 7.32598 7.66916 7.35528 8.70117 7.47071C8.04562 8.27333 7.50855 9.15223 7.08984 10.1074C6.74959 10.9033 6.78867 11.6846 7.20703 12.4512C7.69787 13.1962 8.29359 13.8505 8.99414 14.4141C12.4166 16.808 16.2057 18.2923 20.3613 18.8672C21.5319 19.0293 22.6451 18.8535 23.7012 18.3399C24.0039 18.1153 24.2676 17.8516 24.4922 17.5488C25.0014 16.3891 25.2944 15.1781 25.3711 13.916C26.8849 15.0391 28.1545 16.3867 29.1797 17.959C29.5546 18.5869 29.8182 19.251 29.9707 19.9512ZM2.25586 10.4004C2.83932 10.3607 3.21042 10.6146 3.36914 11.1621C3.13516 11.8655 2.64687 12.1487 1.9043 12.0117C1.40865 11.8702 1.2231 11.548 1.34766 11.0449C1.54873 10.6767 1.85146 10.4619 2.25586 10.4004ZM12.9785 19.3652C13.649 19.3821 14.108 19.6945 14.3555 20.3027C14.4168 20.7505 14.2313 21.0533 13.7988 21.2109C13.1784 21.3363 12.6803 21.1508 12.3047 20.6543C12.0198 19.9545 12.2444 19.5248 12.9785 19.3652ZM27.041 20.0684C27.7838 20.1077 28.2134 20.4983 28.3301 21.2402C28.2314 21.9144 27.8603 22.1391 27.2168 21.9141C26.6292 21.5694 26.4241 21.0713 26.6016 20.4199C26.7266 20.2645 26.8731 20.1473 27.041 20.0684Z" fill="#06D4E7"/>
</g>
<defs>
<clipPath id="clip0_2_59257">
<rect width="30" height="30" fill="white"/>
</clipPath>
</defs>
</svg>
