<svg width="30" height="30" viewBox="0 0 30 30" fill="none" xmlns="http://www.w3.org/2000/svg">
<path opacity="0.983" fill-rule="evenodd" clip-rule="evenodd" d="M7.36122 0.023998C9.01766 -0.141029 10.1508 0.545076 10.7606 2.08231C11.0143 2.8837 10.9416 3.65297 10.5422 4.39012C11.3706 5.44317 12.0567 6.58672 12.6006 7.82065C14.4547 7.39202 16.2115 7.64151 17.8711 8.56913C18.3116 7.79657 18.8003 7.05845 19.3369 6.35488C18.8824 5.30008 18.9344 4.27094 19.4928 3.2674C20.2781 2.26373 21.3072 1.85831 22.5803 2.05113C24.124 2.41269 24.9349 3.38987 25.0128 4.98267C24.9069 6.54655 24.096 7.52369 22.5803 7.91421C22.0045 7.97589 21.4431 7.93435 20.8962 7.78946C20.3897 8.46278 19.9322 9.16965 19.524 9.91015C20.5485 11.0552 21.1618 12.3962 21.364 13.9332C21.4056 17.5509 21.4056 21.1685 21.364 24.7862C21.0054 26.0111 20.1841 26.6452 18.9003 26.6885C18.7678 26.7585 18.6534 26.8521 18.5572 26.9692C18.5543 28.2973 17.9617 29.2433 16.7796 29.8072C15.4805 30.2335 14.3682 29.9528 13.4426 28.9652C13.1905 28.6064 13.0241 28.2114 12.9436 27.7801C12.9228 26.595 12.902 25.4099 12.8812 24.2248C12.7773 24.0584 12.6734 24.0584 12.5694 24.2248C12.5486 24.8278 12.5278 25.4307 12.507 26.0336C12.1442 27.3852 11.2606 28.0921 9.85614 28.1543C8.25309 28.0377 7.34868 27.1853 7.14291 25.597C7.10131 21.8962 7.10131 18.1954 7.14291 14.4946C7.29791 11.9 8.47258 9.92487 10.667 8.56913C10.2104 7.5719 9.65942 6.6363 9.0141 5.76233C7.25156 6.33616 5.96256 5.79558 5.14697 4.14063C4.68958 2.81831 4.94947 1.66441 5.92663 0.678916C6.36892 0.369209 6.84714 0.150902 7.36122 0.023998ZM7.61071 2.08231C8.56358 2.02651 8.94824 2.46313 8.76461 3.39215C8.43491 3.88885 7.98788 4.02399 7.42359 3.79758C6.98298 3.46957 6.86865 3.04335 7.08054 2.51893C7.23279 2.3347 7.40955 2.18916 7.61071 2.08231ZM21.8318 4.01588C22.8358 4.12743 23.1373 4.6472 22.7362 5.57521C22.2195 6.00596 21.7205 5.98513 21.2393 5.51284C20.9439 4.80688 21.1415 4.30789 21.8318 4.01588ZM11.2907 12.6234C12.0549 12.7125 12.4395 13.1491 12.4446 13.9332C13.1137 15.2165 14.1013 15.5388 15.4074 14.9C15.6279 14.7003 15.8254 14.482 15.9999 14.2451C16.1324 13.8211 16.2779 13.4052 16.4365 12.9976C16.9778 12.4905 17.4975 12.5113 17.9958 13.06C18.1815 13.4234 18.2023 13.7976 18.0582 14.1827C17.4238 16.2093 16.0411 17.1969 13.9104 17.1454C11.7759 16.7785 10.622 15.5207 10.4487 13.3719C10.5857 12.9538 10.8663 12.7043 11.2907 12.6234Z" fill="#06D4E7"/>
</svg>
