<svg width="40" height="40" viewBox="0 0 40 40" fill="none" xmlns="http://www.w3.org/2000/svg">
<g clip-path="url(#clip0_8_14)">
<path opacity="0.994" fill-rule="evenodd" clip-rule="evenodd" d="M1.60152 -0.0390625C13.8411 -0.0390625 26.0807 -0.0390625 38.3203 -0.0390625C39.4492 0.494444 39.7748 1.35382 39.2968 2.53906C35.1493 8.41219 30.9827 14.2716 26.7968 20.1172C26.3932 20.6637 26.0286 21.2366 25.7031 21.8359C25.6092 22.0917 25.531 22.3521 25.4687 22.6172C25.4427 26.9401 25.4166 31.263 25.3906 35.5859C25.3463 36.2611 25.0208 36.7429 24.414 37.0312C21.8511 38.0023 19.2991 38.9789 16.7578 39.9609C16.4192 39.9609 16.0807 39.9609 15.7421 39.9609C15.19 39.708 14.8125 39.2914 14.6093 38.7109C14.5833 33.4505 14.5572 28.1901 14.5312 22.9297C14.4355 22.252 14.2011 21.627 13.8281 21.0547C9.45308 14.9088 5.07808 8.76305 0.703078 2.61719C0.186216 1.4463 0.485695 0.560885 1.60152 -0.0390625Z" fill="#06C9DC"/>
</g>
<defs>
<clipPath id="clip0_8_14">
<rect width="40" height="40" fill="white"/>
</clipPath>
</defs>
</svg>
