<svg width="40" height="36" viewBox="0 0 40 36" fill="none" xmlns="http://www.w3.org/2000/svg">
<path opacity="0.993" fill-rule="evenodd" clip-rule="evenodd" d="M39.9609 5.77344C39.9609 6.08594 39.9609 6.39844 39.9609 6.71094C38.3548 12.2207 36.7532 17.7415 35.1562 23.2734C34.984 23.4719 34.7887 23.6412 34.5703 23.7812C27.3568 23.8073 20.1432 23.8334 12.9297 23.8594C11.8337 24.1377 11.5603 24.7757 12.1094 25.7734C12.3403 25.9865 12.6138 26.1037 12.9297 26.125C20.1432 26.151 27.3568 26.1771 34.5703 26.2031C35.2277 26.5428 35.4491 27.0766 35.2344 27.8047C35.1172 28.1302 34.8959 28.3516 34.5703 28.4688C33.8932 28.4948 33.2162 28.5209 32.5391 28.5469C34.5912 29.225 35.4896 30.6443 35.2344 32.8047C34.5563 34.8568 33.137 35.7552 30.9766 35.5C28.9245 34.8219 28.026 33.4026 28.2812 31.2422C28.6588 29.8229 29.5573 28.9245 30.9766 28.5469C26.0026 28.4948 21.0287 28.4948 16.0547 28.5469C18.1068 29.225 19.0052 30.6443 18.75 32.8047C18.0719 34.8568 16.6526 35.7552 14.4922 35.5C12.4401 34.8219 11.5416 33.4026 11.7969 31.2422C12.1745 29.8229 13.0729 28.9245 14.4922 28.5469C13.7109 28.5209 12.9297 28.4948 12.1484 28.4688C10.1204 27.8124 9.22195 26.4191 9.45312 24.2891C9.72328 23.1727 10.3613 22.3394 11.3672 21.7891C11.3932 21.724 11.4193 21.6588 11.4453 21.5938C10.0399 15.3087 8.65969 9.01961 7.30469 2.72656C5.09099 2.73958 2.87745 2.72656 0.664062 2.6875C0.337095 2.55564 0.10272 2.33428 -0.0390625 2.02344C-0.0390625 1.71094 -0.0390625 1.39844 -0.0390625 1.08594C0.10272 0.775096 0.337095 0.553736 0.664062 0.421877C3.34635 0.369791 6.02865 0.369791 8.71094 0.421877C8.9293 0.561971 9.12461 0.731236 9.29688 0.929689C9.64703 2.27819 9.97258 3.63235 10.2734 4.99219C19.9088 5.05729 29.5441 5.09635 39.1797 5.10938C39.5261 5.23483 39.7866 5.45618 39.9609 5.77344Z" fill="#06D2E5"/>
</svg>
