<svg width="30" height="30" viewBox="0 0 30 30" fill="none" xmlns="http://www.w3.org/2000/svg">
<g clip-path="url(#clip0_2_59212)">
<path opacity="0.987" fill-rule="evenodd" clip-rule="evenodd" d="M25.459 -0.0292969C26.5332 -0.0292969 27.6074 -0.0292969 28.6816 -0.0292969C29.3653 0.146484 29.7949 0.576172 29.9707 1.25977C29.9707 2.33398 29.9707 3.40821 29.9707 4.48242C29.7552 8.08793 28.7298 11.4473 26.8945 14.5605C24.576 18.0705 21.5682 20.8245 17.8711 22.8223C14.2871 19.2383 10.7031 15.6543 7.11914 12.0703C9.4691 7.65 12.8675 4.29066 17.3145 1.99219C19.9184 0.848039 22.6332 0.174212 25.459 -0.0292969ZM19.9512 5.06836C21.9451 4.95664 23.4392 5.75742 24.4336 7.4707C25.2992 9.58395 24.8793 11.3906 23.1738 12.8906C21.4489 14.0737 19.7106 14.0933 17.959 12.9492C16.2019 11.4776 15.7429 9.6709 16.582 7.5293C17.3183 6.17766 18.4413 5.35734 19.9512 5.06836Z" fill="#06D4E7"/>
<path opacity="0.973" fill-rule="evenodd" clip-rule="evenodd" d="M20.0683 6.76757C21.684 6.66164 22.7094 7.38433 23.1445 8.93554C23.3184 10.3167 22.7813 11.303 21.5332 11.8945C19.9764 12.3526 18.8143 11.8741 18.0468 10.459C17.5988 9.04904 17.9797 7.92597 19.1894 7.08984C19.4785 6.95138 19.7715 6.84398 20.0683 6.76757Z" fill="#06D4E7"/>
<path opacity="0.972" fill-rule="evenodd" clip-rule="evenodd" d="M-0.0292969 15.1465C-0.0292969 14.8535 -0.0292969 14.5605 -0.0292969 14.2676C1.04291 12.5541 2.14642 10.8549 3.28125 9.16992C3.67028 8.6482 4.18786 8.34551 4.83398 8.26172C5.77073 8.17014 6.70822 8.11154 7.64648 8.08594C5.70531 10.6603 4.39672 13.5314 3.7207 16.6992C2.77887 16.5943 1.84137 16.4381 0.908203 16.2305C0.437774 16.0005 0.125274 15.6392 -0.0292969 15.1465Z" fill="#06D4E7"/>
<path opacity="0.969" fill-rule="evenodd" clip-rule="evenodd" d="M6.35743 13.7402C9.67366 16.9588 12.9549 20.2205 16.2012 23.5254C14.8477 24.1714 13.422 24.5132 11.9238 24.5508C11.7122 24.484 11.5168 24.3864 11.3379 24.2578C9.45311 22.373 7.56838 20.4883 5.6836 18.6035C5.44056 18.2943 5.33313 17.9427 5.36133 17.5488C5.51936 16.2331 5.85139 14.9636 6.35743 13.7402Z" fill="#06D4E7"/>
<path opacity="0.954" fill-rule="evenodd" clip-rule="evenodd" d="M-0.0292969 24.1113C-0.0292969 23.916 -0.0292969 23.7207 -0.0292969 23.5254C1.0297 22.3784 2.12346 21.2553 3.25195 20.1563C4.01494 19.8837 4.48369 20.1473 4.6582 20.9473C4.6307 21.1567 4.56235 21.352 4.45312 21.5332C3.44726 22.5391 2.44141 23.5449 1.43555 24.5508C0.801539 24.8593 0.313259 24.7128 -0.0292969 24.1113Z" fill="#06D4E7"/>
<path opacity="0.972" fill-rule="evenodd" clip-rule="evenodd" d="M15.6738 29.9707C15.3809 29.9707 15.0879 29.9707 14.7949 29.9707C14.3022 29.8161 13.9409 29.5037 13.7109 29.0332C13.5035 28.1012 13.3473 27.1637 13.2422 26.2207C16.41 25.5447 19.2811 24.2361 21.8555 22.2949C21.8299 23.2332 21.7713 24.1707 21.6797 25.1074C21.5959 25.7535 21.2932 26.2712 20.7715 26.6602C19.0865 27.795 17.3873 28.8985 15.6738 29.9707Z" fill="#06D4E7"/>
<path opacity="0.941" fill-rule="evenodd" clip-rule="evenodd" d="M1.20117 29.9707C0.966797 29.9707 0.732422 29.9707 0.498047 29.9707C0.410922 29.8943 0.313266 29.826 0.205078 29.7656C0.134966 29.6476 0.0568408 29.5401 -0.0292969 29.4434C-0.0292969 29.209 -0.0292969 28.9746 -0.0292969 28.7402C1.85013 26.7728 3.76419 24.8295 5.71289 22.9102C6.10863 22.5915 6.51879 22.572 6.94336 22.8516C7.36266 23.2874 7.39195 23.7464 7.03125 24.2285C5.11192 26.1772 3.16856 28.0913 1.20117 29.9707Z" fill="#06D4E7"/>
<path opacity="0.955" fill-rule="evenodd" clip-rule="evenodd" d="M6.41603 29.9707C6.22074 29.9707 6.02539 29.9707 5.83009 29.9707C5.22863 29.6282 5.08215 29.1398 5.39064 28.5059C6.39652 27.5 7.40234 26.4942 8.40822 25.4883C8.88629 25.1888 9.32574 25.2376 9.72658 25.6348C9.94554 25.9836 9.96505 26.3352 9.78517 26.6895C8.68613 27.818 7.56306 28.9117 6.41603 29.9707Z" fill="#06D4E7"/>
</g>
<defs>
<clipPath id="clip0_2_59212">
<rect width="30" height="30" fill="white"/>
</clipPath>
</defs>
</svg>
