<svg width="40" height="40" viewBox="0 0 40 40" fill="none" xmlns="http://www.w3.org/2000/svg">
<g clip-path="url(#clip0_8_13)">
<path opacity="0.981" fill-rule="evenodd" clip-rule="evenodd" d="M4.02344 -0.0390625C4.64844 -0.0390625 5.27344 -0.0390625 5.89844 -0.0390625C9.03336 0.90332 10.3355 2.99967 9.80469 6.25C11.9793 7.55876 14.1668 8.84781 16.3672 10.1172C18.0851 8.61438 20.0122 8.28891 22.1484 9.14062C23.6302 9.92008 24.5546 11.131 24.9219 12.7734C24.9544 13.4748 24.9673 14.1649 24.9609 14.8438C26.9662 15.8984 28.9713 16.9531 30.9766 18.0078C32.5805 16.3047 34.5076 15.7969 36.7578 16.4844C38.4764 17.2018 39.5441 18.4648 39.9609 20.2734C39.9609 20.8984 39.9609 21.5234 39.9609 22.1484C39.0302 25.2488 36.9468 26.564 33.7109 26.0938C32.7853 25.8395 31.978 25.3838 31.2891 24.7266C29.1962 25.7079 27.1129 26.7105 25.0391 27.7344C25.2259 29.6486 24.627 31.2631 23.2422 32.5781C21.7891 33.6916 20.1745 34.0041 18.3984 33.5156C17.3891 33.1874 16.5688 32.6015 15.9375 31.7578C13.977 32.6012 12.0109 33.4345 10.0391 34.2578C10.1137 37.279 8.70742 39.1801 5.82031 39.9609C5.2474 39.9609 4.67448 39.9609 4.10156 39.9609C1.89702 39.4491 0.516805 38.0949 -0.0390625 35.8984C-0.0390625 35.2734 -0.0390625 34.6484 -0.0390625 34.0234C0.830164 31.074 2.80933 29.7328 5.89844 30C7.17127 30.252 8.19992 30.8899 8.98438 31.9141C10.9448 31.0706 12.9109 30.2373 14.8828 29.4141C14.9202 28.74 14.9983 28.0759 15.1172 27.4219C12.9426 26.1131 10.7551 24.8241 8.55469 23.5547C6.97857 24.9455 5.1817 25.3231 3.16406 24.6875C1.44466 23.9671 0.376946 22.7041 -0.0390625 20.8984C-0.0390625 20.2734 -0.0390625 19.6484 -0.0390625 19.0234C0.830164 16.074 2.80933 14.7328 5.89844 15C7.17127 15.252 8.19992 15.8899 8.98438 16.9141C10.9448 16.0706 12.9109 15.2373 14.8828 14.4141C14.9202 13.74 14.9983 13.0759 15.1172 12.4219C12.9426 11.1131 10.7551 9.82406 8.55469 8.55469C6.97857 9.94547 5.1817 10.3231 3.16406 9.6875C1.44466 8.96711 0.376946 7.70406 -0.0390625 5.89844C-0.0390625 5.27344 -0.0390625 4.64844 -0.0390625 4.02344C0.507812 1.86198 1.86198 0.507812 4.02344 -0.0390625ZM15.8984 16.7578C17.3893 18.5245 19.2643 19.1104 21.5234 18.5156C22.3653 18.2323 23.0945 17.7766 23.7109 17.1484C25.7805 18.1963 27.8378 19.2639 29.8828 20.3516C29.957 21.056 29.996 21.7591 30 22.4609C27.9427 23.4505 25.8854 24.4401 23.8281 25.4297C22.0444 23.6072 19.9741 23.2036 17.6172 24.2188C17.1678 24.4728 16.7512 24.7723 16.3672 25.1172C14.1668 23.8478 11.9793 22.5588 9.80469 21.25C9.92359 20.5959 10.0017 19.9319 10.0391 19.2578C12.0082 18.442 13.9613 17.6087 15.8984 16.7578Z" fill="#06CDE0"/>
</g>
<defs>
<clipPath id="clip0_8_13">
<rect width="40" height="40" fill="white"/>
</clipPath>
</defs>
</svg>
