<svg width="40" height="40" viewBox="0 0 40 40" fill="none" xmlns="http://www.w3.org/2000/svg">
<g clip-path="url(#clip0_2_59322)">
<path opacity="0.979" fill-rule="evenodd" clip-rule="evenodd" d="M5.50781 -0.0390625C5.76823 -0.0390625 6.02865 -0.0390625 6.28906 -0.0390625C6.47708 0.0555986 6.65938 0.172786 6.83594 0.3125C9.13844 2.69314 11.4691 5.04991 13.8281 7.38281C13.9062 7.51302 13.9844 7.64323 14.0625 7.77344C14.0885 9.30992 14.1146 10.8463 14.1406 12.3828C16.4605 14.6766 18.7522 16.9944 21.0156 19.3359C21.2828 20.0079 21.1396 20.5678 20.5859 21.0156C20.0155 21.2288 19.4947 21.1507 19.0234 20.7812C16.8099 18.5677 14.5963 16.3541 12.3828 14.1406C10.8463 14.1146 9.30992 14.0885 7.77344 14.0625C7.64323 13.9844 7.51302 13.9062 7.38281 13.8281C5.02604 11.4713 2.66927 9.11461 0.3125 6.75781C0.172786 6.58125 0.0555986 6.39895 -0.0390625 6.21094C-0.0390625 5.95052 -0.0390625 5.6901 -0.0390625 5.42969C0.122323 5.12474 0.356698 4.87735 0.664062 4.6875C2.01798 4.64845 3.37215 4.63542 4.72656 4.64844C4.71355 3.32005 4.72657 1.99193 4.76562 0.664062C4.95548 0.356698 5.20287 0.122323 5.50781 -0.0390625Z" fill="#06D1E4"/>
<path opacity="0.98" fill-rule="evenodd" clip-rule="evenodd" d="M18.3984 -0.0390625C19.4922 -0.0390625 20.5859 -0.0390625 21.6797 -0.0390625C29.3561 0.939664 34.8899 4.898 38.2812 11.8359C39.184 13.8917 39.7439 16.0272 39.9609 18.2422C39.9609 19.388 39.9609 20.5338 39.9609 21.6797C38.9823 29.3557 35.024 34.8895 28.0859 38.2812C26.0302 39.184 23.8947 39.7439 21.6797 39.9609C20.5338 39.9609 19.388 39.9609 18.2422 39.9609C10.5662 38.9823 5.03234 35.024 1.64062 28.0859C0.760717 26.0242 0.200821 23.8888 -0.0390625 21.6797C-0.0390625 20.5859 -0.0390625 19.4922 -0.0390625 18.3984C0.220994 16.0052 0.872039 13.7136 1.91406 11.5234C3.11089 12.6812 4.29579 13.853 5.46875 15.0391C5.52084 15.1953 5.52084 15.3516 5.46875 15.5078C3.8408 21.6142 5.28612 26.8616 9.80469 31.25C14.6027 35.2394 19.9412 36.1508 25.8203 33.9844C31.1393 31.5022 34.2252 27.3485 35.0781 21.5234C35.4501 15.6672 33.3016 10.9927 28.6328 7.5C24.5763 4.79991 20.2013 4.12283 15.5078 5.46875C15.3516 5.52084 15.1953 5.52084 15.0391 5.46875C13.853 4.29579 12.6812 3.11089 11.5234 1.91406C13.7136 0.872039 16.0052 0.220994 18.3984 -0.0390625Z" fill="#06D1E4"/>
<path opacity="0.979" fill-rule="evenodd" clip-rule="evenodd" d="M18.7891 9.41405C23.3606 9.14093 26.8372 10.9378 29.2187 14.8047C30.6052 17.4483 30.8917 20.2087 30.0781 23.0859C28.8932 26.5625 26.5625 28.8932 23.0859 30.0781C18.7426 31.203 15.0316 30.1483 11.9531 26.9141C9.43655 23.8098 8.78546 20.3463 9.99999 16.5234C10.5275 16.434 11.0614 16.421 11.6015 16.4844C12.4869 17.3698 13.3724 18.2552 14.2578 19.1406C13.9759 22.1922 15.252 24.3016 18.0859 25.4687C20.9413 26.2209 23.22 25.4006 24.9219 23.0078C26.3822 20.1153 25.9264 17.5762 23.5547 15.3906C22.242 14.3887 20.7706 14.0111 19.1406 14.2578C18.2552 13.3724 17.3698 12.4869 16.4844 11.6016C16.421 11.0614 16.434 10.5275 16.5234 9.99999C17.273 9.74108 18.0283 9.54577 18.7891 9.41405Z" fill="#06D1E4"/>
</g>
<defs>
<clipPath id="clip0_2_59322">
<rect width="40" height="40" fill="white"/>
</clipPath>
</defs>
</svg>
