<svg width="40" height="40" viewBox="0 0 40 40" fill="none" xmlns="http://www.w3.org/2000/svg">
<g clip-path="url(#clip0_2_59312)">
<path opacity="0.987" fill-rule="evenodd" clip-rule="evenodd" d="M1.75781 0.898439C13.8933 0.885415 26.0287 0.898439 38.1641 0.937501C38.8448 1.14944 39.2485 1.60517 39.375 2.30469C39.4141 4.46599 39.4271 6.62745 39.4141 8.78906C26.4453 8.78906 13.4766 8.78906 0.507811 8.78906C0.494793 6.62745 0.507813 4.46599 0.546874 2.30469C0.688357 1.60374 1.092 1.13499 1.75781 0.898439ZM3.86719 3.55469C4.82987 3.51498 5.37675 3.97071 5.50781 4.92188C5.26922 6.07185 4.59213 6.46248 3.47656 6.09375C2.7173 5.50967 2.60011 4.81956 3.125 4.02344C3.34708 3.81542 3.59448 3.65917 3.86719 3.55469ZM8.78906 3.55469C9.75226 3.51556 10.2991 3.97129 10.4297 4.92188C10.1634 6.13575 9.46023 6.50034 8.32031 6.01563C7.64171 5.4257 7.55056 4.76164 8.04687 4.02344C8.26898 3.81542 8.51633 3.65917 8.78906 3.55469ZM13.7109 3.55469C14.6593 3.5143 15.2062 3.95701 15.3516 4.88281C15.2842 5.70535 14.8416 6.1741 14.0234 6.28906C12.8227 6.0229 12.4452 5.31977 12.8906 4.17969C13.1118 3.89226 13.3852 3.68393 13.7109 3.55469Z" fill="#06D4E7"/>
<path opacity="0.979" fill-rule="evenodd" clip-rule="evenodd" d="M0.507813 9.96094C13.4766 9.96094 26.4453 9.96094 39.4141 9.96094C39.4271 19.1797 39.4141 28.3984 39.375 37.6172C39.24 38.3512 38.8103 38.8069 38.0859 38.9844C25.9766 39.0365 13.8672 39.0365 1.75781 38.9844C1.07704 38.7724 0.673389 38.3167 0.546875 37.6172C0.507813 28.3984 0.494792 19.1797 0.507813 9.96094ZM4.17969 12.6953C6.96615 12.6953 9.75258 12.6953 12.5391 12.6953C12.5391 16.4453 12.5391 20.1953 12.5391 23.9453C9.75258 23.9453 6.96615 23.9453 4.17969 23.9453C4.17969 20.1953 4.17969 16.4453 4.17969 12.6953ZM15.7422 12.6953C18.5547 12.6953 21.3672 12.6953 24.1797 12.6953C24.1797 16.4453 24.1797 20.1953 24.1797 23.9453C21.3672 23.9453 18.5547 23.9453 15.7422 23.9453C15.7422 20.1953 15.7422 16.4453 15.7422 12.6953ZM27.3828 12.6953C30.1693 12.6953 32.9557 12.6953 35.7422 12.6953C35.7422 16.4453 35.7422 20.1953 35.7422 23.9453C32.9557 23.9453 30.1693 23.9453 27.3828 23.9453C27.3828 20.1953 27.3828 16.4453 27.3828 12.6953ZM9.88281 26.8359C16.6016 26.8229 23.3204 26.8359 30.0391 26.875C30.6307 27.2021 30.6567 27.5667 30.1172 27.9688C23.3463 28.0209 16.5755 28.0209 9.80469 27.9688C9.40281 27.7545 9.32469 27.4549 9.57031 27.0703C9.67977 26.9905 9.78398 26.9124 9.88281 26.8359ZM9.72656 29.6484C16.5495 29.6354 23.3724 29.6484 30.1953 29.6875C30.612 30.026 30.612 30.3646 30.1953 30.7031C23.3984 30.7552 16.6016 30.7552 9.80469 30.7031C9.31375 30.3912 9.28773 30.0396 9.72656 29.6484ZM11.4453 32.3828C17.1224 32.3698 22.7995 32.3828 28.4766 32.4219C28.8913 32.7679 28.8913 33.1065 28.4766 33.4375C22.7995 33.4896 17.1224 33.4896 11.4453 33.4375C11.1622 33.2687 11.071 33.0213 11.1719 32.6953C11.2794 32.6012 11.3705 32.497 11.4453 32.3828ZM16.2109 34.6484C17.2934 34.6263 17.645 35.121 17.2656 36.1328C16.4405 36.6955 15.8806 36.5002 15.5859 35.5469C15.6591 35.1491 15.8673 34.8496 16.2109 34.6484ZM19.6484 34.6484C20.6134 34.6015 20.9909 35.0442 20.7812 35.9766C20.2344 36.6016 19.6875 36.6016 19.1406 35.9766C18.9348 35.3822 19.1041 34.9395 19.6484 34.6484ZM23.0078 34.6484C23.7366 34.5315 24.1793 34.831 24.3359 35.5469C24.103 36.4185 23.5821 36.6529 22.7734 36.25C22.309 35.6341 22.3871 35.1002 23.0078 34.6484Z" fill="#06D4E7"/>
</g>
<defs>
<clipPath id="clip0_2_59312">
<rect width="40" height="40" fill="white"/>
</clipPath>
</defs>
</svg>
