<svg width="40" height="40" viewBox="0 0 40 40" fill="none" xmlns="http://www.w3.org/2000/svg">
<g clip-path="url(#clip0_9_18)">
<path opacity="0.995" fill-rule="evenodd" clip-rule="evenodd" d="M12.461 -0.0390625C17.4349 -0.0390625 22.4088 -0.0390625 27.3828 -0.0390625C29.1956 0.380465 30.3285 1.50026 30.7813 3.32031C30.8717 8.86484 30.9107 14.4117 30.8985 19.9609C30.9107 25.5102 30.8717 31.057 30.7813 36.6016C30.3285 38.4216 29.1956 39.5414 27.3828 39.9609C22.4088 39.9609 17.4349 39.9609 12.461 39.9609C10.6653 39.4803 9.53244 38.3345 9.06252 36.5234C9.01041 25.4818 9.01041 14.4401 9.06252 3.39844C9.50635 1.56141 10.6392 0.415571 12.461 -0.0390625ZM16.9922 3.63281C18.9455 3.6198 20.8986 3.63281 22.8516 3.67188C23.5343 4.00075 23.6775 4.48252 23.2813 5.11719C23.1704 5.1922 23.0532 5.2573 22.9297 5.3125C20.9245 5.36459 18.9193 5.36459 16.9141 5.3125C16.3739 5.01799 16.2307 4.5883 16.4844 4.02344C16.6379 3.86326 16.8072 3.73305 16.9922 3.63281ZM19.8047 32.6953C21.1821 32.8353 21.7941 33.5905 21.6406 34.9609C21.2306 36.0483 20.4624 36.4519 19.336 36.1719C18.36 35.6913 18.0085 34.923 18.2813 33.8672C18.6003 33.2217 19.1081 32.8311 19.8047 32.6953Z" fill="#06C9DC"/>
</g>
<defs>
<clipPath id="clip0_9_18">
<rect width="40" height="40" fill="white"/>
</clipPath>
</defs>
</svg>
