<svg width="160" height="22" viewBox="0 0 160 22" fill="none" xmlns="http://www.w3.org/2000/svg">
<path d="M4.23 14.858V6.542H6.552V14.858H4.23ZM1.116 11.798V9.602H9.684V11.798H1.116ZM18.591 17L23.667 5.516L24.423 6.776H17.637L18.933 5.408V8.828H16.341V4.4H26.439V6.29L21.759 17H18.591ZM37.2628 4.184C38.4268 4.184 39.4288 4.424 40.2688 4.904C41.1088 5.384 41.7568 6.086 42.2128 7.01C42.6688 7.922 42.8968 9.062 42.8968 10.43C42.8968 11.882 42.6208 13.112 42.0688 14.12C41.5288 15.128 40.7788 15.896 39.8188 16.424C38.8588 16.952 37.7428 17.216 36.4708 17.216C35.8108 17.216 35.1748 17.144 34.5628 17C33.9508 16.856 33.4228 16.64 32.9788 16.352L34.0588 14.21C34.4068 14.45 34.7788 14.618 35.1748 14.714C35.5708 14.798 35.9848 14.84 36.4168 14.84C37.4968 14.84 38.3548 14.51 38.9908 13.85C39.6388 13.19 39.9628 12.212 39.9628 10.916C39.9628 10.7 39.9568 10.46 39.9448 10.196C39.9328 9.932 39.9028 9.668 39.8548 9.404L40.6468 10.16C40.4428 10.628 40.1548 11.024 39.7828 11.348C39.4108 11.66 38.9788 11.9 38.4868 12.068C37.9948 12.224 37.4428 12.302 36.8308 12.302C36.0268 12.302 35.2948 12.14 34.6348 11.816C33.9868 11.492 33.4648 11.036 33.0688 10.448C32.6848 9.86 32.4928 9.17 32.4928 8.378C32.4928 7.514 32.7028 6.77 33.1228 6.146C33.5548 5.522 34.1308 5.042 34.8508 4.706C35.5828 4.358 36.3868 4.184 37.2628 4.184ZM37.4428 6.362C37.0228 6.362 36.6568 6.44 36.3448 6.596C36.0328 6.74 35.7868 6.956 35.6068 7.244C35.4268 7.52 35.3368 7.85 35.3368 8.234C35.3368 8.81 35.5288 9.272 35.9128 9.62C36.3088 9.956 36.8308 10.124 37.4788 10.124C37.8988 10.124 38.2708 10.046 38.5948 9.89C38.9308 9.722 39.1888 9.494 39.3688 9.206C39.5488 8.918 39.6388 8.594 39.6388 8.234C39.6388 7.874 39.5488 7.556 39.3688 7.28C39.2008 6.992 38.9548 6.77 38.6308 6.614C38.3068 6.446 37.9108 6.362 37.4428 6.362ZM44.1174 17V15.11L48.9774 10.52C49.3614 10.172 49.6434 9.86 49.8234 9.584C50.0034 9.308 50.1234 9.056 50.1834 8.828C50.2554 8.6 50.2914 8.39 50.2914 8.198C50.2914 7.694 50.1174 7.31 49.7694 7.046C49.4334 6.77 48.9354 6.632 48.2754 6.632C47.7474 6.632 47.2554 6.734 46.7994 6.938C46.3554 7.142 45.9774 7.46 45.6654 7.892L43.5414 6.524C44.0214 5.804 44.6934 5.234 45.5574 4.814C46.4214 4.394 47.4174 4.184 48.5454 4.184C49.4814 4.184 50.2974 4.34 50.9934 4.652C51.7014 4.952 52.2474 5.378 52.6314 5.93C53.0274 6.482 53.2254 7.142 53.2254 7.91C53.2254 8.318 53.1714 8.726 53.0634 9.134C52.9674 9.53 52.7634 9.95 52.4514 10.394C52.1514 10.838 51.7074 11.336 51.1194 11.888L47.0874 15.686L46.5294 14.624H53.6394V17H44.1174ZM60.0626 17.216C59.0066 17.216 58.0826 17.06 57.2906 16.748C56.4986 16.424 55.8806 15.974 55.4366 15.398C54.9926 14.81 54.7706 14.126 54.7706 13.346C54.7706 12.566 54.9866 11.906 55.4186 11.366C55.8626 10.814 56.4806 10.4 57.2726 10.124C58.0646 9.836 58.9946 9.692 60.0626 9.692C61.1426 9.692 62.0786 9.836 62.8706 10.124C63.6746 10.4 64.2926 10.814 64.7246 11.366C65.1686 11.906 65.3906 12.566 65.3906 13.346C65.3906 14.126 65.1686 14.81 64.7246 15.398C64.2806 15.974 63.6566 16.424 62.8526 16.748C62.0606 17.06 61.1306 17.216 60.0626 17.216ZM60.0626 15.074C60.7946 15.074 61.3706 14.912 61.7906 14.588C62.2226 14.264 62.4386 13.82 62.4386 13.256C62.4386 12.692 62.2226 12.254 61.7906 11.942C61.3706 11.618 60.7946 11.456 60.0626 11.456C59.3426 11.456 58.7726 11.618 58.3526 11.942C57.9326 12.254 57.7226 12.692 57.7226 13.256C57.7226 13.82 57.9326 14.264 58.3526 14.588C58.7726 14.912 59.3426 15.074 60.0626 15.074ZM60.0626 11.168C59.0906 11.168 58.2386 11.036 57.5066 10.772C56.7866 10.508 56.2226 10.124 55.8146 9.62C55.4186 9.104 55.2206 8.492 55.2206 7.784C55.2206 7.04 55.4246 6.404 55.8326 5.876C56.2406 5.336 56.8106 4.922 57.5426 4.634C58.2746 4.334 59.1146 4.184 60.0626 4.184C61.0346 4.184 61.8806 4.334 62.6006 4.634C63.3326 4.922 63.9026 5.336 64.3106 5.876C64.7306 6.404 64.9406 7.04 64.9406 7.784C64.9406 8.492 64.7366 9.104 64.3286 9.62C63.9326 10.124 63.3686 10.508 62.6366 10.772C61.9046 11.036 61.0466 11.168 60.0626 11.168ZM60.0626 9.458C60.6746 9.458 61.1546 9.32 61.5026 9.044C61.8626 8.768 62.0426 8.39 62.0426 7.91C62.0426 7.406 61.8566 7.016 61.4846 6.74C61.1246 6.464 60.6506 6.326 60.0626 6.326C59.4866 6.326 59.0186 6.464 58.6586 6.74C58.2986 7.016 58.1186 7.406 58.1186 7.91C58.1186 8.39 58.2926 8.768 58.6406 9.044C58.9886 9.32 59.4626 9.458 60.0626 9.458ZM76.2511 4.184C77.4151 4.184 78.4171 4.424 79.2571 4.904C80.0971 5.384 80.7451 6.086 81.2011 7.01C81.6571 7.922 81.8851 9.062 81.8851 10.43C81.8851 11.882 81.6091 13.112 81.0571 14.12C80.5171 15.128 79.7671 15.896 78.8071 16.424C77.8471 16.952 76.7311 17.216 75.4591 17.216C74.7991 17.216 74.1631 17.144 73.5511 17C72.9391 16.856 72.4111 16.64 71.9671 16.352L73.0471 14.21C73.3951 14.45 73.7671 14.618 74.1631 14.714C74.5591 14.798 74.9731 14.84 75.4051 14.84C76.4851 14.84 77.3431 14.51 77.9791 13.85C78.6271 13.19 78.9511 12.212 78.9511 10.916C78.9511 10.7 78.9451 10.46 78.9331 10.196C78.9211 9.932 78.8911 9.668 78.8431 9.404L79.6351 10.16C79.4311 10.628 79.1431 11.024 78.7711 11.348C78.3991 11.66 77.9671 11.9 77.4751 12.068C76.9831 12.224 76.4311 12.302 75.8191 12.302C75.0151 12.302 74.2831 12.14 73.6231 11.816C72.9751 11.492 72.4531 11.036 72.0571 10.448C71.6731 9.86 71.4811 9.17 71.4811 8.378C71.4811 7.514 71.6911 6.77 72.1111 6.146C72.5431 5.522 73.1191 5.042 73.8391 4.706C74.5711 4.358 75.3751 4.184 76.2511 4.184ZM76.4311 6.362C76.0111 6.362 75.6451 6.44 75.3331 6.596C75.0211 6.74 74.7751 6.956 74.5951 7.244C74.4151 7.52 74.3251 7.85 74.3251 8.234C74.3251 8.81 74.5171 9.272 74.9011 9.62C75.2971 9.956 75.8191 10.124 76.4671 10.124C76.8871 10.124 77.2591 10.046 77.5831 9.89C77.9191 9.722 78.1771 9.494 78.3571 9.206C78.5371 8.918 78.6271 8.594 78.6271 8.234C78.6271 7.874 78.5371 7.556 78.3571 7.28C78.1891 6.992 77.9431 6.77 77.6191 6.614C77.2951 6.446 76.8991 6.362 76.4311 6.362ZM83.1057 17V15.11L87.9657 10.52C88.3497 10.172 88.6317 9.86 88.8117 9.584C88.9917 9.308 89.1117 9.056 89.1717 8.828C89.2437 8.6 89.2797 8.39 89.2797 8.198C89.2797 7.694 89.1057 7.31 88.7577 7.046C88.4217 6.77 87.9237 6.632 87.2637 6.632C86.7357 6.632 86.2437 6.734 85.7877 6.938C85.3437 7.142 84.9657 7.46 84.6537 7.892L82.5297 6.524C83.0097 5.804 83.6817 5.234 84.5457 4.814C85.4097 4.394 86.4057 4.184 87.5337 4.184C88.4697 4.184 89.2857 4.34 89.9817 4.652C90.6897 4.952 91.2357 5.378 91.6197 5.93C92.0157 6.482 92.2137 7.142 92.2137 7.91C92.2137 8.318 92.1597 8.726 92.0517 9.134C91.9557 9.53 91.7517 9.95 91.4397 10.394C91.1397 10.838 90.6957 11.336 90.1077 11.888L86.0757 15.686L85.5177 14.624H92.6277V17H83.1057ZM99.0509 17.216C97.9949 17.216 97.0709 17.06 96.2789 16.748C95.4869 16.424 94.8689 15.974 94.4249 15.398C93.9809 14.81 93.7589 14.126 93.7589 13.346C93.7589 12.566 93.9749 11.906 94.4069 11.366C94.8509 10.814 95.4689 10.4 96.2609 10.124C97.0529 9.836 97.9829 9.692 99.0509 9.692C100.131 9.692 101.067 9.836 101.859 10.124C102.663 10.4 103.281 10.814 103.713 11.366C104.157 11.906 104.379 12.566 104.379 13.346C104.379 14.126 104.157 14.81 103.713 15.398C103.269 15.974 102.645 16.424 101.841 16.748C101.049 17.06 100.119 17.216 99.0509 17.216ZM99.0509 15.074C99.7829 15.074 100.359 14.912 100.779 14.588C101.211 14.264 101.427 13.82 101.427 13.256C101.427 12.692 101.211 12.254 100.779 11.942C100.359 11.618 99.7829 11.456 99.0509 11.456C98.3309 11.456 97.7609 11.618 97.3409 11.942C96.9209 12.254 96.7109 12.692 96.7109 13.256C96.7109 13.82 96.9209 14.264 97.3409 14.588C97.7609 14.912 98.3309 15.074 99.0509 15.074ZM99.0509 11.168C98.0789 11.168 97.2269 11.036 96.4949 10.772C95.7749 10.508 95.2109 10.124 94.8029 9.62C94.4069 9.104 94.2089 8.492 94.2089 7.784C94.2089 7.04 94.4129 6.404 94.8209 5.876C95.2289 5.336 95.7989 4.922 96.5309 4.634C97.2629 4.334 98.1029 4.184 99.0509 4.184C100.023 4.184 100.869 4.334 101.589 4.634C102.321 4.922 102.891 5.336 103.299 5.876C103.719 6.404 103.929 7.04 103.929 7.784C103.929 8.492 103.725 9.104 103.317 9.62C102.921 10.124 102.357 10.508 101.625 10.772C100.893 11.036 100.035 11.168 99.0509 11.168ZM99.0509 9.458C99.6629 9.458 100.143 9.32 100.491 9.044C100.851 8.768 101.031 8.39 101.031 7.91C101.031 7.406 100.845 7.016 100.473 6.74C100.113 6.464 99.6389 6.326 99.0509 6.326C98.4749 6.326 98.0069 6.464 97.6469 6.74C97.2869 7.016 97.1069 7.406 97.1069 7.91C97.1069 8.39 97.2809 8.768 97.6289 9.044C97.9769 9.32 98.4509 9.458 99.0509 9.458ZM115.239 4.184C116.403 4.184 117.405 4.424 118.245 4.904C119.085 5.384 119.733 6.086 120.189 7.01C120.645 7.922 120.873 9.062 120.873 10.43C120.873 11.882 120.597 13.112 120.045 14.12C119.505 15.128 118.755 15.896 117.795 16.424C116.835 16.952 115.719 17.216 114.447 17.216C113.787 17.216 113.151 17.144 112.539 17C111.927 16.856 111.399 16.64 110.955 16.352L112.035 14.21C112.383 14.45 112.755 14.618 113.151 14.714C113.547 14.798 113.961 14.84 114.393 14.84C115.473 14.84 116.331 14.51 116.967 13.85C117.615 13.19 117.939 12.212 117.939 10.916C117.939 10.7 117.933 10.46 117.921 10.196C117.909 9.932 117.879 9.668 117.831 9.404L118.623 10.16C118.419 10.628 118.131 11.024 117.759 11.348C117.387 11.66 116.955 11.9 116.463 12.068C115.971 12.224 115.419 12.302 114.807 12.302C114.003 12.302 113.271 12.14 112.611 11.816C111.963 11.492 111.441 11.036 111.045 10.448C110.661 9.86 110.469 9.17 110.469 8.378C110.469 7.514 110.679 6.77 111.099 6.146C111.531 5.522 112.107 5.042 112.827 4.706C113.559 4.358 114.363 4.184 115.239 4.184ZM115.419 6.362C114.999 6.362 114.633 6.44 114.321 6.596C114.009 6.74 113.763 6.956 113.583 7.244C113.403 7.52 113.313 7.85 113.313 8.234C113.313 8.81 113.505 9.272 113.889 9.62C114.285 9.956 114.807 10.124 115.455 10.124C115.875 10.124 116.247 10.046 116.571 9.89C116.907 9.722 117.165 9.494 117.345 9.206C117.525 8.918 117.615 8.594 117.615 8.234C117.615 7.874 117.525 7.556 117.345 7.28C117.177 6.992 116.931 6.77 116.607 6.614C116.283 6.446 115.887 6.362 115.419 6.362ZM122.094 17V15.11L126.954 10.52C127.338 10.172 127.62 9.86 127.8 9.584C127.98 9.308 128.1 9.056 128.16 8.828C128.232 8.6 128.268 8.39 128.268 8.198C128.268 7.694 128.094 7.31 127.746 7.046C127.41 6.77 126.912 6.632 126.252 6.632C125.724 6.632 125.232 6.734 124.776 6.938C124.332 7.142 123.954 7.46 123.642 7.892L121.518 6.524C121.998 5.804 122.67 5.234 123.534 4.814C124.398 4.394 125.394 4.184 126.522 4.184C127.458 4.184 128.274 4.34 128.97 4.652C129.678 4.952 130.224 5.378 130.608 5.93C131.004 6.482 131.202 7.142 131.202 7.91C131.202 8.318 131.148 8.726 131.04 9.134C130.944 9.53 130.74 9.95 130.428 10.394C130.128 10.838 129.684 11.336 129.096 11.888L125.064 15.686L124.506 14.624H131.616V17H122.094ZM137.809 17V15.11L142.669 10.52C143.053 10.172 143.335 9.86 143.515 9.584C143.695 9.308 143.815 9.056 143.875 8.828C143.947 8.6 143.983 8.39 143.983 8.198C143.983 7.694 143.809 7.31 143.461 7.046C143.125 6.77 142.627 6.632 141.967 6.632C141.439 6.632 140.947 6.734 140.491 6.938C140.047 7.142 139.669 7.46 139.357 7.892L137.233 6.524C137.713 5.804 138.385 5.234 139.249 4.814C140.113 4.394 141.109 4.184 142.237 4.184C143.173 4.184 143.989 4.34 144.685 4.652C145.393 4.952 145.939 5.378 146.323 5.93C146.719 6.482 146.917 7.142 146.917 7.91C146.917 8.318 146.863 8.726 146.755 9.134C146.659 9.53 146.455 9.95 146.143 10.394C145.843 10.838 145.399 11.336 144.811 11.888L140.779 15.686L140.221 14.624H147.331V17H137.809ZM153.754 17.216C152.698 17.216 151.774 17.06 150.982 16.748C150.19 16.424 149.572 15.974 149.128 15.398C148.684 14.81 148.462 14.126 148.462 13.346C148.462 12.566 148.678 11.906 149.11 11.366C149.554 10.814 150.172 10.4 150.964 10.124C151.756 9.836 152.686 9.692 153.754 9.692C154.834 9.692 155.77 9.836 156.562 10.124C157.366 10.4 157.984 10.814 158.416 11.366C158.86 11.906 159.082 12.566 159.082 13.346C159.082 14.126 158.86 14.81 158.416 15.398C157.972 15.974 157.348 16.424 156.544 16.748C155.752 17.06 154.822 17.216 153.754 17.216ZM153.754 15.074C154.486 15.074 155.062 14.912 155.482 14.588C155.914 14.264 156.13 13.82 156.13 13.256C156.13 12.692 155.914 12.254 155.482 11.942C155.062 11.618 154.486 11.456 153.754 11.456C153.034 11.456 152.464 11.618 152.044 11.942C151.624 12.254 151.414 12.692 151.414 13.256C151.414 13.82 151.624 14.264 152.044 14.588C152.464 14.912 153.034 15.074 153.754 15.074ZM153.754 11.168C152.782 11.168 151.93 11.036 151.198 10.772C150.478 10.508 149.914 10.124 149.506 9.62C149.11 9.104 148.912 8.492 148.912 7.784C148.912 7.04 149.116 6.404 149.524 5.876C149.932 5.336 150.502 4.922 151.234 4.634C151.966 4.334 152.806 4.184 153.754 4.184C154.726 4.184 155.572 4.334 156.292 4.634C157.024 4.922 157.594 5.336 158.002 5.876C158.422 6.404 158.632 7.04 158.632 7.784C158.632 8.492 158.428 9.104 158.02 9.62C157.624 10.124 157.06 10.508 156.328 10.772C155.596 11.036 154.738 11.168 153.754 11.168ZM153.754 9.458C154.366 9.458 154.846 9.32 155.194 9.044C155.554 8.768 155.734 8.39 155.734 7.91C155.734 7.406 155.548 7.016 155.176 6.74C154.816 6.464 154.342 6.326 153.754 6.326C153.178 6.326 152.71 6.464 152.35 6.74C151.99 7.016 151.81 7.406 151.81 7.91C151.81 8.39 151.984 8.768 152.332 9.044C152.68 9.32 153.154 9.458 153.754 9.458Z" fill="url(#paint0_linear_2_59301)"/>
<defs>
<linearGradient id="paint0_linear_2_59301" x1="4.51499" y1="11" x2="160" y2="11" gradientUnits="userSpaceOnUse">
<stop stop-color="#DE00BB"/>
<stop offset="0.433333" stop-color="#8A6CF8"/>
<stop offset="0.954166" stop-color="#00D8E6"/>
</linearGradient>
</defs>
</svg>
