<svg width="214" height="21" viewBox="0 0 214 21" fill="none" xmlns="http://www.w3.org/2000/svg">
<path d="M14.04 20L0.15 13.37L1.44 7.43L18.12 0.799999L16.68 7.7L8.52 10.61L15.45 13.52L14.04 20ZM14.9419 20L26.1619 0.139998H33.6019L22.3819 20H14.9419ZM34.7934 20L34.3734 0.679998H41.4534L41.3634 8.06L43.3434 3.95L44.0334 0.679998H49.9434L50.5434 8.09L53.7534 0.679998H60.8034L52.2534 20H46.1334L45.4134 12.38L41.3334 20H34.7934ZM58.2274 20L62.3074 0.679998H77.7574L76.6474 5.9H68.4574L68.0974 7.64H75.1474L74.0074 13.04H66.9574L66.5674 14.78H74.7574L73.6774 20H58.2274ZM74.8973 20L78.9773 0.679998H90.4373C91.9773 0.679998 93.2273 1.08 94.1873 1.88C95.1673 2.68 95.6573 3.73 95.6573 5.03C95.6573 5.43 95.6173 5.8 95.5373 6.14C95.3373 7.1 94.9973 7.92 94.5173 8.6C94.0573 9.28 93.5073 9.82 92.8673 10.22C93.4073 10.5 93.8373 10.85 94.1573 11.27C94.4773 11.67 94.6373 12.22 94.6373 12.92C94.6373 13.1 94.6173 13.3 94.5773 13.52C94.5573 13.72 94.5273 13.93 94.4873 14.15C94.1073 15.97 93.2673 17.4 91.9673 18.44C90.6873 19.48 88.8573 20 86.4773 20H74.8973ZM84.2273 8.09H86.9273C87.8873 8.09 88.4573 7.66 88.6373 6.8C88.6573 6.72 88.6673 6.62 88.6673 6.5C88.6673 5.9 88.2673 5.6 87.4673 5.6H84.7673L84.2273 8.09ZM82.7273 15.08H85.4273C86.3873 15.08 86.9573 14.65 87.1373 13.79C87.1573 13.73 87.1673 13.67 87.1673 13.61C87.1673 13.55 87.1673 13.5 87.1673 13.46C87.1673 12.88 86.7673 12.59 85.9673 12.59H83.2673L82.7273 15.08ZM100.649 20L104.729 0.679998H115.589C116.929 0.679998 118.029 0.929999 118.889 1.43C119.769 1.91 120.429 2.58 120.869 3.44C121.309 4.28 121.529 5.24 121.529 6.32C121.529 6.62 121.509 6.93 121.469 7.25C121.449 7.55 121.399 7.87 121.319 8.21C121.019 9.61 120.489 10.88 119.729 12.02C118.989 13.14 117.999 14.03 116.759 14.69C115.539 15.35 114.049 15.68 112.289 15.68H108.809L107.909 20H100.649ZM110.009 10.01H111.779C112.359 10.01 112.829 9.85 113.189 9.53C113.569 9.21 113.819 8.77 113.939 8.21C113.999 7.97 114.029 7.76 114.029 7.58C114.029 6.76 113.579 6.35 112.679 6.35H110.789L110.009 10.01ZM119.722 20L123.802 0.679998H139.252L138.142 5.9H129.952L129.592 7.64H136.642L135.502 13.04H128.452L128.062 14.78H136.252L135.172 20H119.722ZM146.951 20.3C144.011 20.3 141.701 19.68 140.021 18.44C138.361 17.2 137.531 15.37 137.531 12.95C137.531 12.55 137.551 12.13 137.591 11.69C137.651 11.25 137.731 10.8 137.831 10.34C138.531 7.06 140.011 4.58 142.271 2.9C144.551 1.22 147.701 0.379999 151.721 0.379999C152.961 0.379999 154.051 0.469999 154.991 0.649999C155.951 0.809999 156.851 1.05 157.691 1.37L156.431 7.43C155.571 7.07 154.681 6.83 153.761 6.71C152.841 6.57 151.881 6.5 150.881 6.5C149.481 6.5 148.271 6.78 147.251 7.34C146.231 7.88 145.561 8.88 145.241 10.34C145.101 10.92 145.031 11.47 145.031 11.99C145.031 12.79 145.281 13.36 145.781 13.7C146.281 14.02 147.091 14.18 148.211 14.18C148.851 14.18 149.461 14.11 150.041 13.97L150.311 12.8H147.101L148.031 8.42H157.241L155.111 18.41C154.191 18.91 153.041 19.35 151.661 19.73C150.301 20.11 148.731 20.3 146.951 20.3ZM155.976 20L167.496 0.679998H175.026L178.386 20H171.186L170.556 16.4H165.876L163.746 20H155.976ZM167.706 11.45H170.646L169.956 7.76L167.706 11.45ZM185.735 20.3C184.375 20.3 183.085 20.19 181.865 19.97C180.665 19.73 179.685 19.39 178.925 18.95L180.065 13.52C180.925 13.98 181.905 14.36 183.005 14.66C184.125 14.96 185.145 15.11 186.065 15.11C186.705 15.11 187.215 15.03 187.595 14.87C187.975 14.69 188.165 14.44 188.165 14.12C188.165 13.8 187.875 13.55 187.295 13.37C186.715 13.19 185.965 12.91 185.045 12.53C183.765 11.99 182.805 11.39 182.165 10.73C181.525 10.05 181.205 9.17 181.205 8.09C181.205 7.55 181.275 6.99 181.415 6.41C181.855 4.37 182.825 2.86 184.325 1.88C185.825 0.879999 188.115 0.379999 191.195 0.379999C191.835 0.379999 192.535 0.429999 193.295 0.529999C194.055 0.609999 194.795 0.719999 195.515 0.86C196.235 0.999999 196.845 1.15 197.345 1.31L196.175 6.77C195.195 6.31 194.295 6 193.475 5.84C192.675 5.68 191.955 5.6 191.315 5.6C190.955 5.6 190.585 5.62 190.205 5.66C189.825 5.7 189.495 5.78 189.215 5.9C188.955 6.02 188.825 6.2 188.825 6.44C188.825 6.68 189.035 6.87 189.455 7.01C189.895 7.13 190.555 7.33 191.435 7.61C193.115 8.11 194.275 8.74 194.915 9.5C195.575 10.26 195.905 11.18 195.905 12.26C195.905 12.56 195.885 12.87 195.845 13.19C195.805 13.51 195.745 13.85 195.665 14.21C195.405 15.43 194.895 16.5 194.135 17.42C193.395 18.34 192.345 19.05 190.985 19.55C189.625 20.05 187.875 20.3 185.735 20.3ZM195.352 20L196.762 13.1L204.952 10.19L197.992 7.28L199.432 0.799999L213.292 7.43L212.002 13.37L195.352 20Z" fill="#7C90FF" fill-opacity="0.62"/>
</svg>
