<svg width="265" height="80" viewBox="0 0 265 80" fill="none" xmlns="http://www.w3.org/2000/svg">
<rect width="265" height="80" rx="15" fill="#0E0D19" fill-opacity="0.5"/>
<path d="M75.5929 34.964C76.6696 34.964 77.5989 35.2077 78.3809 35.695C79.1629 36.171 79.7636 36.868 80.1829 37.786C80.6023 38.704 80.8119 39.8147 80.8119 41.118C80.8119 42.3987 80.6023 43.5037 80.1829 44.433C79.7636 45.351 79.1629 46.0537 78.3809 46.541C77.5989 47.0283 76.6696 47.272 75.5929 47.272C74.5163 47.272 73.5813 47.034 72.7879 46.558C72.0059 46.0707 71.4053 45.368 70.9859 44.45C70.5666 43.5207 70.3569 42.41 70.3569 41.118C70.3569 39.8487 70.5666 38.755 70.9859 37.837C71.4166 36.9077 72.0229 36.1993 72.8049 35.712C73.5983 35.2133 74.5276 34.964 75.5929 34.964ZM75.5929 36.834C74.7316 36.834 74.0799 37.174 73.6379 37.854C73.2073 38.534 72.9919 39.622 72.9919 41.118C72.9919 42.614 73.2129 43.702 73.6549 44.382C74.0969 45.062 74.7429 45.402 75.5929 45.402C76.4543 45.402 77.1003 45.0677 77.5309 44.399C77.9616 43.719 78.1769 42.6253 78.1769 41.118C78.1769 39.6107 77.9616 38.5227 77.5309 37.854C77.1003 37.174 76.4543 36.834 75.5929 36.834ZM87.2108 38.602C87.8568 38.602 88.4348 38.7663 88.9448 39.095C89.4548 39.4237 89.8572 39.9053 90.1518 40.54C90.4465 41.1633 90.5938 41.9057 90.5938 42.767C90.5938 43.6963 90.4182 44.501 90.0668 45.181C89.7155 45.8497 89.2225 46.3653 88.5878 46.728C87.9532 47.0907 87.2165 47.272 86.3778 47.272C85.0632 47.272 84.0205 46.8357 83.2498 45.963C82.4905 45.079 82.1108 43.7473 82.1108 41.968C82.1108 40.6647 82.2185 39.5937 82.4338 38.755C82.6492 37.9163 83.0175 37.2307 83.5388 36.698C84.0715 36.154 84.8138 35.729 85.7658 35.423C86.4572 35.2077 87.0012 35.015 87.3978 34.845C87.8058 34.6637 88.2478 34.4257 88.7238 34.131L89.6248 35.712C89.2282 35.9613 88.8088 36.188 88.3668 36.392C87.9248 36.596 87.3865 36.7943 86.7518 36.987C86.2418 37.157 85.8338 37.3553 85.5278 37.582C85.2332 37.7973 84.9952 38.1033 84.8138 38.5C84.6438 38.8853 84.5248 39.4123 84.4568 40.081C85.1142 39.095 86.0322 38.602 87.2108 38.602ZM86.3608 45.47C86.8935 45.47 87.3128 45.2773 87.6188 44.892C87.9248 44.4953 88.0778 43.8153 88.0778 42.852C88.0778 41.9567 87.9475 41.3277 87.6868 40.965C87.4375 40.591 87.0635 40.404 86.5648 40.404C86.1795 40.404 85.8168 40.5117 85.4768 40.727C85.1368 40.931 84.8535 41.2427 84.6268 41.662V42.801C84.6268 43.685 84.7798 44.3537 85.0858 44.807C85.3918 45.249 85.8168 45.47 86.3608 45.47ZM96.958 47.017C96.5953 48.1617 96.023 49.0457 95.241 49.669C94.4703 50.2923 93.422 50.6493 92.096 50.74L91.841 49.006C92.7023 48.8927 93.3313 48.6887 93.728 48.394C94.136 48.0993 94.4703 47.6347 94.731 47H93.898L91.093 37.99H93.66L95.462 45.436L97.366 37.99H99.865L96.958 47.017ZM108.003 37.99V47H105.589V43.549C105.261 43.821 104.87 44.0363 104.416 44.195C103.974 44.3423 103.515 44.416 103.039 44.416C102.167 44.416 101.515 44.178 101.084 43.702C100.654 43.2147 100.438 42.5347 100.438 41.662V37.99H102.852V41.356C102.852 41.8093 102.937 42.1323 103.107 42.325C103.277 42.5177 103.538 42.614 103.889 42.614C104.195 42.614 104.501 42.5573 104.807 42.444C105.125 42.3193 105.385 42.1607 105.589 41.968V37.99H108.003ZM117.995 42.291C117.995 42.4043 117.978 42.716 117.944 43.226H112.317C112.397 44.042 112.618 44.62 112.98 44.96C113.343 45.3 113.836 45.47 114.459 45.47C114.845 45.47 115.207 45.4077 115.547 45.283C115.887 45.1583 116.256 44.96 116.652 44.688L117.655 46.048C116.647 46.864 115.508 47.272 114.238 47.272C112.822 47.272 111.734 46.847 110.974 45.997C110.215 45.147 109.835 43.9967 109.835 42.546C109.835 41.628 109.994 40.8063 110.311 40.081C110.64 39.3443 111.11 38.7663 111.722 38.347C112.346 37.9277 113.082 37.718 113.932 37.718C115.213 37.718 116.21 38.1203 116.924 38.925C117.638 39.7297 117.995 40.8517 117.995 42.291ZM115.598 41.611C115.598 40.115 115.06 39.367 113.983 39.367C113.485 39.367 113.094 39.554 112.81 39.928C112.538 40.2907 112.374 40.8857 112.317 41.713H115.598V41.611ZM124.945 47V43.328H122.157V47H119.743V37.99H122.157V41.509H124.945V37.99H127.359V47H124.945ZM137.438 47H135.126V43.583C135.126 42.937 135.16 42.325 135.228 41.747C135.296 41.169 135.37 40.71 135.449 40.37L132.253 47H129.737V37.99H132.049V41.441C132.049 42.053 132.015 42.6593 131.947 43.26C131.89 43.8493 131.822 44.3027 131.743 44.62L134.888 37.99H137.438V47ZM147.43 42.291C147.43 42.4043 147.413 42.716 147.379 43.226H141.752C141.831 44.042 142.052 44.62 142.415 44.96C142.778 45.3 143.271 45.47 143.894 45.47C144.279 45.47 144.642 45.4077 144.982 45.283C145.322 45.1583 145.69 44.96 146.087 44.688L147.09 46.048C146.081 46.864 144.942 47.272 143.673 47.272C142.256 47.272 141.168 46.847 140.409 45.997C139.65 45.147 139.27 43.9967 139.27 42.546C139.27 41.628 139.429 40.8063 139.746 40.081C140.075 39.3443 140.545 38.7663 141.157 38.347C141.78 37.9277 142.517 37.718 143.367 37.718C144.648 37.718 145.645 38.1203 146.359 38.925C147.073 39.7297 147.43 40.8517 147.43 42.291ZM145.033 41.611C145.033 40.115 144.495 39.367 143.418 39.367C142.919 39.367 142.528 39.554 142.245 39.928C141.973 40.2907 141.809 40.8857 141.752 41.713H145.033V41.611ZM158.53 47V43.328H155.742V47H153.328V37.99H155.742V41.509H158.53V37.99H160.944V47H158.53ZM170.938 42.291C170.938 42.4043 170.921 42.716 170.887 43.226H165.26C165.339 44.042 165.56 44.62 165.923 44.96C166.286 45.3 166.779 45.47 167.402 45.47C167.787 45.47 168.15 45.4077 168.49 45.283C168.83 45.1583 169.198 44.96 169.595 44.688L170.598 46.048C169.589 46.864 168.45 47.272 167.181 47.272C165.764 47.272 164.676 46.847 163.917 45.997C163.158 45.147 162.778 43.9967 162.778 42.546C162.778 41.628 162.937 40.8063 163.254 40.081C163.583 39.3443 164.053 38.7663 164.665 38.347C165.288 37.9277 166.025 37.718 166.875 37.718C168.156 37.718 169.153 38.1203 169.867 38.925C170.581 39.7297 170.938 40.8517 170.938 42.291ZM168.541 41.611C168.541 40.115 168.003 39.367 166.926 39.367C166.427 39.367 166.036 39.554 165.753 39.928C165.481 40.2907 165.317 40.8857 165.26 41.713H168.541V41.611ZM180.386 47H178.074V43.583C178.074 42.937 178.108 42.325 178.176 41.747C178.244 41.169 178.318 40.71 178.397 40.37L175.201 47H172.685V37.99H174.997V41.441C174.997 42.053 174.963 42.6593 174.895 43.26C174.838 43.8493 174.77 44.3027 174.691 44.62L177.836 37.99H180.386V47ZM176.527 36.205C175.7 36.205 175.037 35.984 174.538 35.542C174.039 35.0887 173.756 34.488 173.688 33.74L175.065 33.485C175.167 33.8477 175.331 34.1083 175.558 34.267C175.796 34.4257 176.119 34.505 176.527 34.505C176.924 34.505 177.241 34.4257 177.479 34.267C177.717 34.1083 177.893 33.8477 178.006 33.485L179.383 33.74C179.315 34.488 179.026 35.0887 178.516 35.542C178.017 35.984 177.354 36.205 176.527 36.205ZM187.624 37.718C188.758 37.718 189.596 38.1373 190.14 38.976C190.696 39.8033 190.973 40.9707 190.973 42.478C190.973 43.396 190.832 44.2177 190.548 44.943C190.265 45.6683 189.851 46.2407 189.307 46.66C188.775 47.068 188.14 47.272 187.403 47.272C186.485 47.272 185.743 46.949 185.176 46.303V50.468L182.762 50.74V37.99H184.887L185.006 39.044C185.346 38.602 185.743 38.2733 186.196 38.058C186.661 37.8313 187.137 37.718 187.624 37.718ZM186.689 45.47C187.868 45.47 188.457 44.4783 188.457 42.495C188.457 41.407 188.327 40.6363 188.066 40.183C187.806 39.7297 187.409 39.503 186.876 39.503C186.536 39.503 186.219 39.6107 185.924 39.826C185.641 40.03 185.392 40.3077 185.176 40.659V44.586C185.562 45.1753 186.066 45.47 186.689 45.47ZM196.68 37.718C198.029 37.718 199.083 38.143 199.842 38.993C200.602 39.8317 200.981 40.999 200.981 42.495C200.981 43.447 200.806 44.2857 200.454 45.011C200.114 45.725 199.616 46.2803 198.958 46.677C198.312 47.0737 197.547 47.272 196.663 47.272C195.315 47.272 194.255 46.8527 193.484 46.014C192.725 45.164 192.345 43.991 192.345 42.495C192.345 41.543 192.515 40.71 192.855 39.996C193.207 39.2707 193.705 38.7097 194.351 38.313C195.009 37.9163 195.785 37.718 196.68 37.718ZM196.68 39.52C196.068 39.52 195.609 39.7637 195.303 40.251C195.009 40.727 194.861 41.475 194.861 42.495C194.861 43.515 195.009 44.2687 195.303 44.756C195.609 45.232 196.063 45.47 196.663 45.47C197.264 45.47 197.712 45.232 198.006 44.756C198.312 44.2687 198.465 43.515 198.465 42.495C198.465 41.475 198.318 40.727 198.023 40.251C197.729 39.7637 197.281 39.52 196.68 39.52ZM206.574 37.718C207.175 37.718 207.713 37.8087 208.189 37.99C208.676 38.16 209.135 38.432 209.566 38.806L208.512 40.234C208.217 40.0073 207.928 39.843 207.645 39.741C207.373 39.639 207.073 39.588 206.744 39.588C205.463 39.588 204.823 40.574 204.823 42.546C204.823 43.5433 204.987 44.2573 205.316 44.688C205.645 45.1187 206.115 45.334 206.727 45.334C207.044 45.334 207.333 45.2887 207.594 45.198C207.855 45.096 208.161 44.9317 208.512 44.705L209.566 46.218C208.705 46.9207 207.719 47.272 206.608 47.272C205.724 47.272 204.953 47.0793 204.296 46.694C203.65 46.3087 203.151 45.7647 202.8 45.062C202.449 44.348 202.273 43.515 202.273 42.563C202.273 41.611 202.449 40.7723 202.8 40.047C203.151 39.3103 203.65 38.738 204.296 38.33C204.953 37.922 205.713 37.718 206.574 37.718ZM218.219 42.291C218.219 42.4043 218.202 42.716 218.168 43.226H212.541C212.62 44.042 212.841 44.62 213.204 44.96C213.567 45.3 214.06 45.47 214.683 45.47C215.068 45.47 215.431 45.4077 215.771 45.283C216.111 45.1583 216.479 44.96 216.876 44.688L217.879 46.048C216.87 46.864 215.731 47.272 214.462 47.272C213.045 47.272 211.957 46.847 211.198 45.997C210.439 45.147 210.059 43.9967 210.059 42.546C210.059 41.628 210.218 40.8063 210.535 40.081C210.864 39.3443 211.334 38.7663 211.946 38.347C212.569 37.9277 213.306 37.718 214.156 37.718C215.437 37.718 216.434 38.1203 217.148 38.925C217.862 39.7297 218.219 40.8517 218.219 42.291ZM215.822 41.611C215.822 40.115 215.284 39.367 214.207 39.367C213.708 39.367 213.317 39.554 213.034 39.928C212.762 40.2907 212.598 40.8857 212.541 41.713H215.822V41.611ZM226.369 37.99L226.063 39.809H223.513V47H221.099V39.809H218.396V37.99H226.369ZM234.655 42.291C234.655 42.4043 234.638 42.716 234.604 43.226H228.977C229.056 44.042 229.277 44.62 229.64 44.96C230.002 45.3 230.495 45.47 231.119 45.47C231.504 45.47 231.867 45.4077 232.207 45.283C232.547 45.1583 232.915 44.96 233.312 44.688L234.315 46.048C233.306 46.864 232.167 47.272 230.898 47.272C229.481 47.272 228.393 46.847 227.634 45.997C226.874 45.147 226.495 43.9967 226.495 42.546C226.495 41.628 226.653 40.8063 226.971 40.081C227.299 39.3443 227.77 38.7663 228.382 38.347C229.005 37.9277 229.742 37.718 230.592 37.718C231.872 37.718 232.87 38.1203 233.584 38.925C234.298 39.7297 234.655 40.8517 234.655 42.291ZM232.258 41.611C232.258 40.115 231.719 39.367 230.643 39.367C230.144 39.367 229.753 39.554 229.47 39.928C229.198 40.2907 229.033 40.8857 228.977 41.713H232.258V41.611ZM244.103 47H241.791V43.583C241.791 42.937 241.825 42.325 241.893 41.747C241.961 41.169 242.035 40.71 242.114 40.37L238.918 47H236.402V37.99H238.714V41.441C238.714 42.053 238.68 42.6593 238.612 43.26C238.555 43.8493 238.487 44.3027 238.408 44.62L241.553 37.99H244.103V47ZM240.244 36.205C239.417 36.205 238.754 35.984 238.255 35.542C237.756 35.0887 237.473 34.488 237.405 33.74L238.782 33.485C238.884 33.8477 239.048 34.1083 239.275 34.267C239.513 34.4257 239.836 34.505 240.244 34.505C240.641 34.505 240.958 34.4257 241.196 34.267C241.434 34.1083 241.61 33.8477 241.723 33.485L243.1 33.74C243.032 34.488 242.743 35.0887 242.233 35.542C241.734 35.984 241.071 36.205 240.244 36.205Z" fill="#06D4E7"/>
</svg>
