<svg width="143" height="15" viewBox="0 0 143 15" fill="none" xmlns="http://www.w3.org/2000/svg">
<path d="M9.36 14L0.1 9.58L0.96 5.62L12.08 1.2L11.12 5.8L5.68 7.74L10.3 9.68L9.36 14ZM9.96125 14L17.4413 0.759999H22.4013L14.9213 14H9.96125ZM23.1956 14L22.9156 1.12H27.6356L27.5756 6.04L28.8956 3.3L29.3556 1.12H33.2956L33.6956 6.06L35.8356 1.12H40.5356L34.8356 14H30.7556L30.2756 8.92L27.5556 14H23.1956ZM38.8183 14L41.5383 1.12H51.8383L51.0983 4.6H45.6383L45.3983 5.76H50.0983L49.3383 9.36H44.6383L44.3783 10.52H49.8383L49.1183 14H38.8183ZM49.9316 14L52.6516 1.12H60.2916C61.3182 1.12 62.1516 1.38667 62.7916 1.92C63.4449 2.45333 63.7716 3.15333 63.7716 4.02C63.7716 4.28667 63.7449 4.53333 63.6916 4.76C63.5582 5.4 63.3316 5.94667 63.0116 6.4C62.7049 6.85333 62.3382 7.21333 61.9116 7.48C62.2716 7.66667 62.5582 7.9 62.7716 8.18C62.9849 8.44667 63.0916 8.81333 63.0916 9.28C63.0916 9.4 63.0782 9.53333 63.0516 9.68C63.0382 9.81333 63.0182 9.95333 62.9916 10.1C62.7382 11.3133 62.1782 12.2667 61.3116 12.96C60.4582 13.6533 59.2382 14 57.6516 14H49.9316ZM56.1516 6.06H57.9516C58.5916 6.06 58.9716 5.77333 59.0916 5.2C59.1049 5.14667 59.1116 5.08 59.1116 5C59.1116 4.6 58.8449 4.4 58.3116 4.4H56.5116L56.1516 6.06ZM55.1516 10.72H56.9516C57.5916 10.72 57.9716 10.4333 58.0916 9.86C58.1049 9.82 58.1116 9.78 58.1116 9.74C58.1116 9.7 58.1116 9.66667 58.1116 9.64C58.1116 9.25333 57.8449 9.06 57.3116 9.06H55.5116L55.1516 10.72ZM67.0995 14L69.8195 1.12H77.0595C77.9529 1.12 78.6862 1.28667 79.2595 1.62C79.8462 1.94 80.2862 2.38667 80.5795 2.96C80.8729 3.52 81.0195 4.16 81.0195 4.88C81.0195 5.08 81.0062 5.28667 80.9795 5.5C80.9662 5.7 80.9329 5.91333 80.8795 6.14C80.6795 7.07333 80.3262 7.92 79.8195 8.68C79.3262 9.42667 78.6662 10.02 77.8395 10.46C77.0262 10.9 76.0329 11.12 74.8595 11.12H72.5395L71.9395 14H67.0995ZM73.3395 7.34H74.5195C74.9062 7.34 75.2195 7.23333 75.4595 7.02C75.7129 6.80667 75.8795 6.51333 75.9595 6.14C75.9995 5.98 76.0195 5.84 76.0195 5.72C76.0195 5.17333 75.7195 4.9 75.1195 4.9H73.8595L73.3395 7.34ZM79.8144 14L82.5344 1.12H92.8344L92.0944 4.6H86.6344L86.3944 5.76H91.0944L90.3344 9.36H85.6344L85.3744 10.52H90.8344L90.1144 14H79.8144ZM97.9677 14.2C96.0077 14.2 94.4677 13.7867 93.3477 12.96C92.241 12.1333 91.6877 10.9133 91.6877 9.3C91.6877 9.03333 91.701 8.75333 91.7277 8.46C91.7677 8.16667 91.821 7.86667 91.8877 7.56C92.3543 5.37333 93.341 3.72 94.8477 2.6C96.3677 1.48 98.4677 0.919999 101.148 0.919999C101.974 0.919999 102.701 0.979999 103.328 1.1C103.968 1.20667 104.568 1.36667 105.128 1.58L104.288 5.62C103.714 5.38 103.121 5.22 102.508 5.14C101.894 5.04667 101.254 5 100.588 5C99.6543 5 98.8477 5.18667 98.1677 5.56C97.4877 5.92 97.041 6.58667 96.8277 7.56C96.7343 7.94667 96.6877 8.31333 96.6877 8.66C96.6877 9.19333 96.8543 9.57333 97.1877 9.8C97.521 10.0133 98.061 10.12 98.8077 10.12C99.2343 10.12 99.641 10.0733 100.028 9.98L100.208 9.2H98.0677L98.6877 6.28H104.828L103.408 12.94C102.794 13.2733 102.028 13.5667 101.108 13.82C100.201 14.0733 99.1543 14.2 97.9677 14.2ZM103.984 14L111.664 1.12H116.684L118.924 14H114.124L113.704 11.6H110.584L109.164 14H103.984ZM111.804 8.3H113.764L113.304 5.84L111.804 8.3ZM123.823 14.2C122.917 14.2 122.057 14.1267 121.243 13.98C120.443 13.82 119.79 13.5933 119.283 13.3L120.043 9.68C120.617 9.98667 121.27 10.24 122.003 10.44C122.75 10.64 123.43 10.74 124.043 10.74C124.47 10.74 124.81 10.6867 125.063 10.58C125.317 10.46 125.443 10.2933 125.443 10.08C125.443 9.86667 125.25 9.7 124.863 9.58C124.477 9.46 123.977 9.27333 123.363 9.02C122.51 8.66 121.87 8.26 121.443 7.82C121.017 7.36667 120.803 6.78 120.803 6.06C120.803 5.7 120.85 5.32667 120.943 4.94C121.237 3.58 121.883 2.57333 122.883 1.92C123.883 1.25333 125.41 0.919999 127.463 0.919999C127.89 0.919999 128.357 0.953332 128.863 1.02C129.37 1.07333 129.863 1.14667 130.343 1.24C130.823 1.33333 131.23 1.43333 131.563 1.54L130.783 5.18C130.13 4.87333 129.53 4.66667 128.983 4.56C128.45 4.45333 127.97 4.4 127.543 4.4C127.303 4.4 127.057 4.41333 126.803 4.44C126.55 4.46667 126.33 4.52 126.143 4.6C125.97 4.68 125.883 4.8 125.883 4.96C125.883 5.12 126.023 5.24667 126.303 5.34C126.597 5.42 127.037 5.55333 127.623 5.74C128.743 6.07333 129.517 6.49333 129.943 7C130.383 7.50667 130.603 8.12 130.603 8.84C130.603 9.04 130.59 9.24667 130.563 9.46C130.537 9.67333 130.497 9.9 130.443 10.14C130.27 10.9533 129.93 11.6667 129.423 12.28C128.93 12.8933 128.23 13.3667 127.323 13.7C126.417 14.0333 125.25 14.2 123.823 14.2ZM130.235 14L131.175 9.4L136.635 7.46L131.995 5.52L132.955 1.2L142.195 5.62L141.335 9.58L130.235 14Z" fill="white" fill-opacity="0.62"/>
</svg>
