<svg width="182" height="44" viewBox="0 0 182 44" fill="none" xmlns="http://www.w3.org/2000/svg">
<path d="M5.52 26.464C7.408 27.008 8.944 27.184 10.128 26.992C11.344 26.768 12.416 25.968 13.344 24.592L14.976 22.192L15.792 21.28L26.256 0.399998H35.52L21.6 26.368C20.224 28.928 18.576 30.912 16.656 32.32C14.768 33.728 12.688 34.528 10.416 34.72C8.144 34.912 5.76 34.496 3.264 33.472L5.52 26.464ZM15.648 28.912L0.288 0.399998H10.32L20.832 22.192L15.648 28.912ZM49.1749 34.432C46.2949 34.432 43.7189 33.856 41.4469 32.704C39.2069 31.552 37.4469 29.968 36.1669 27.952C34.8869 25.904 34.2469 23.568 34.2469 20.944C34.2469 18.32 34.8869 16 36.1669 13.984C37.4469 11.968 39.2069 10.4 41.4469 9.28C43.7189 8.128 46.2949 7.552 49.1749 7.552C52.1189 7.552 54.6629 8.176 56.8069 9.424C58.9509 10.672 60.4709 12.432 61.3669 14.704L54.3109 18.304C53.7029 17.088 52.9509 16.208 52.0549 15.664C51.1589 15.088 50.1829 14.8 49.1269 14.8C48.0709 14.8 47.1109 15.04 46.2469 15.52C45.3829 16 44.6949 16.704 44.1829 17.632C43.7029 18.528 43.4629 19.632 43.4629 20.944C43.4629 22.288 43.7029 23.424 44.1829 24.352C44.6949 25.28 45.3829 25.984 46.2469 26.464C47.1109 26.944 48.0709 27.184 49.1269 27.184C50.1829 27.184 51.1589 26.912 52.0549 26.368C52.9509 25.792 53.7029 24.896 54.3109 23.68L61.3669 27.28C60.4709 29.552 58.9509 31.312 56.8069 32.56C54.6629 33.808 52.1189 34.432 49.1749 34.432ZM62.307 34L62.691 26.56C62.915 26.592 63.123 26.624 63.315 26.656C63.507 26.656 63.683 26.656 63.843 26.656C64.643 26.656 65.267 26.464 65.715 26.08C66.195 25.664 66.547 25.104 66.771 24.4C67.027 23.696 67.203 22.88 67.299 21.952C67.427 20.992 67.507 19.952 67.539 18.832L67.923 7.984H91.443V34H82.323V13.168L84.339 15.232H73.923L75.843 13.072L75.555 19.216C75.459 21.552 75.251 23.68 74.931 25.6C74.643 27.488 74.179 29.104 73.539 30.448C72.899 31.792 72.019 32.832 70.899 33.568C69.811 34.272 68.419 34.624 66.723 34.624C66.115 34.624 65.427 34.56 64.659 34.432C63.923 34.336 63.139 34.192 62.307 34ZM102.372 43.744C100.996 43.744 99.604 43.52 98.196 43.072C96.82 42.656 95.7 42.096 94.836 41.392L98.004 35.008C98.548 35.488 99.172 35.856 99.876 36.112C100.612 36.4 101.332 36.544 102.036 36.544C103.028 36.544 103.812 36.32 104.388 35.872C104.964 35.424 105.46 34.72 105.876 33.76L107.076 30.736L107.796 29.824L116.628 7.984H125.316L114.084 35.056C113.188 37.296 112.148 39.04 110.964 40.288C109.812 41.568 108.516 42.464 107.076 42.976C105.668 43.488 104.1 43.744 102.372 43.744ZM105.924 35.104L94.452 7.984H103.812L112.26 29.008L105.924 35.104ZM128.275 34V7.984H150.067V15.232H135.379L137.347 13.264V34H128.275ZM153.635 34V7.984H162.707V21.616L173.603 7.984H182.003V34H172.883V20.32L162.083 34H153.635Z" fill="url(#paint0_linear_2_59303)"/>
<defs>
<linearGradient id="paint0_linear_2_59303" x1="5.24868" y1="16.5" x2="186" y2="16.5" gradientUnits="userSpaceOnUse">
<stop stop-color="#DE00BB"/>
<stop offset="0.433333" stop-color="#8A6CF8"/>
<stop offset="0.954166" stop-color="#00D8E6"/>
</linearGradient>
</defs>
</svg>
